<svg width="173" height="23" viewBox="0 0 173 23" fill="none" xmlns="http://www.w3.org/2000/svg"><g clip-path="url(#clip0_249_6978)"><path fillRule="evenodd" clipRule="evenodd" d="M13.9327 10.7928C14.4621 11.9185 14.7613 13.1523 14.7613 14.3789C14.7613 18.4551 11.4568 22.0424 7.38063 22.0424C3.30442 22.0424 0 18.4551 0 14.3789C0 13.1523 0.299187 11.9185 0.828563 10.7928C1.03976 14.0645 3.89249 17.3094 7.38063 17.3094C10.8612 17.3094 13.7091 14.0786 13.9313 10.8142L13.9327 10.7928ZM7.38063 0C10.8422 4.81885 12.573 8.30949 12.573 10.4719C12.573 13.1348 10.2705 15.9294 7.38063 15.9294C4.49074 15.9294 2.18823 13.1348 2.18823 10.4719C2.18823 8.30949 3.91903 4.81885 7.38063 0Z" fill="url(#paint0_linear_249_6978)"></path></g><path d="M171.079 15.1635C170.703 14.6405 170.251 14.1761 169.737 13.7854C169.613 13.6826 169.48 13.5904 169.341 13.5098C170.028 13.3567 170.66 13.0215 171.171 12.5397C171.712 12.0437 172.014 11.3419 172.002 10.6104C172.014 9.98815 171.785 9.38515 171.362 8.92645C170.908 8.46312 170.331 8.13725 169.698 7.98662C168.859 7.783 167.996 7.69581 167.133 7.72755H164.555V19.0275H166.496V13.813L166.773 13.8295C169.643 13.8295 171.184 18.3798 171.337 19.0165H173.001C171.911 16.2714 171.079 15.1635 171.079 15.1635ZM156.109 7.85741V8.61852H151.273V12.868H154.44V13.6098H151.273V18.4219H156.079V19.1637H149.298V7.85741H156.109ZM132.724 7.85741V13.2045L138.534 7.86293H139.609L134.707 12.4682L141.261 19.1637H138.567L133.274 13.7312L132.724 14.2469V19.1637H130.772V7.85741H132.724ZM117.234 7.85741L122.054 19.1637H119.934C119.31 17.6167 119.066 17.0376 119.066 17.0376L118.271 15.1431H114.504L112.949 19.1637H111.974L116.685 7.85741H117.234ZM93.8938 7.85741L97.7456 16.6294L101.586 7.85741H103.392V19.1637H101.45V9.98079L97.431 19.1637H96.8127L92.8242 9.98079V19.1637H92.0856V7.85741H93.8938ZM75.9148 7.85741L81.8513 15.7635V7.85741H82.6864V19.1637H82.1085L74.7148 9.46511V18.8907H73.9682V7.85741H75.9148ZM64.7052 7.85741V19.1637H62.7982V7.85741H64.7052ZM49.2602 7.85741L54.0801 19.1637H51.9625C51.3362 17.6167 51.0923 17.0376 51.0923 17.0376L50.2996 15.1431H46.5302L44.9753 19.1637H43.9997L48.6976 7.85741H49.2602ZM29.6717 7.86371C30.5332 7.83215 31.3948 7.91933 32.2323 8.12278C32.8642 8.27284 33.4403 8.5988 33.8932 9.06261C34.3164 9.52104 34.5464 10.124 34.5354 10.7466C34.5457 11.4778 34.2439 12.179 33.7049 12.6759C33.1941 13.1577 32.5618 13.4929 31.8752 13.646C32.016 13.7259 32.1494 13.8181 32.2738 13.9216C32.7874 14.3112 33.2398 14.7747 33.6164 15.2969C33.6164 15.2969 34.4468 16.3993 35.5541 19.1554H33.8766C33.7243 18.5188 32.188 13.9685 29.3229 13.9685L29.0461 13.9519V19.1637H27.1084V7.86371H29.6717ZM116.375 10.4992L114.79 14.4123H118.008L116.375 10.4992ZM48.3761 10.4992L46.7907 14.4123H49.9975L48.3761 10.4992ZM29.0461 8.674V13.2243H30.1119C30.2995 13.2175 30.4856 13.1869 30.6655 13.1334C30.8482 13.0893 31.0143 13.0286 31.1665 12.9818H31.1693C31.6787 12.8008 32.0832 12.4071 32.2766 11.9042C32.382 11.5765 32.4334 11.234 32.4288 10.8899C32.4639 10.2866 32.2736 9.69168 31.8946 9.21971C31.5901 8.84212 30.8122 8.69054 29.5333 8.69054L29.0461 8.674ZM166.496 8.53508L166.984 8.55162C168.268 8.55162 169.044 8.7032 169.349 9.08079C169.729 9.55275 169.919 10.1477 169.884 10.751C169.889 11.095 169.837 11.4375 169.731 11.7652C169.538 12.268 169.132 12.6615 168.622 12.8428H168.639C168.487 12.8897 168.317 12.9503 168.134 12.9944C167.954 13.048 167.768 13.0786 167.58 13.0854H166.496V8.53508Z" fill="white"></path><defs><linearGradient id="paint0_linear_249_6978" x1="7.45481" y1="-0.278164" x2="7.38063" y2="28.0946" gradientUnits="userSpaceOnUse"><stop stop-color="#D943A5"></stop><stop offset="1" stop-color="#7CA4F7"></stop></linearGradient><clipPath id="clip0_249_6978"><rect width="14.7613" height="22.0677" fill="white"></rect></clipPath></defs></svg>