<svg xmlns="http://www.w3.org/2000/svg" width="173" height="23" fill="none"><g clip-path="url(#a)"><path fill="url(#b)" fill-rule="evenodd" d="M13.933 10.793c.53 1.126.828 2.36.828 3.586 0 4.076-3.304 7.663-7.38 7.663C3.304 22.042 0 18.455 0 14.38c0-1.227.3-2.46.829-3.586.21 3.272 3.063 6.516 6.552 6.516 3.48 0 6.328-3.23 6.55-6.495l.002-.021ZM7.38 0c3.461 4.819 5.192 8.31 5.192 10.472 0 2.663-2.303 5.457-5.192 5.457-2.89 0-5.193-2.794-5.193-5.457C2.188 8.309 3.92 4.819 7.381 0Z" clipRule-rule="evenodd"/></g><path fill="#fff" d="M171.079 15.164a6.488 6.488 0 0 0-1.342-1.379 2.901 2.901 0 0 0-.396-.275 3.905 3.905 0 0 0 1.83-.97 2.56 2.56 0 0 0 .831-1.93 2.415 2.415 0 0 0-.64-1.684 3.446 3.446 0 0 0-1.664-.94 9.409 9.409 0 0 0-2.565-.258h-2.578v11.3h1.941v-5.215l.277.016c2.87 0 4.411 4.55 4.564 5.188h1.664c-1.09-2.746-1.922-3.853-1.922-3.853Zm-14.97-7.307v.762h-4.836v4.249h3.167v.742h-3.167v4.812h4.806v.742h-6.781V7.857h6.811Zm-23.385 0v5.347l5.81-5.341h1.075l-4.902 4.605 6.554 6.696h-2.694l-5.293-5.433-.55.516v4.917h-1.952V7.857h1.952Zm-15.49 0 4.82 11.307h-2.12a176.223 176.223 0 0 0-.868-2.126l-.795-1.895h-3.767l-1.555 4.02h-.975l4.711-11.306h.549Zm-23.34 0 3.852 8.772 3.84-8.772h1.806v11.307h-1.942V9.98l-4.019 9.183h-.618L92.824 9.98v9.183h-.738V7.857h1.808Zm-17.98 0 5.937 7.907V7.857h.835v11.307h-.578l-7.393-9.699v9.426h-.747V7.857h1.947Zm-11.209 0v11.307h-1.907V7.857h1.907Zm-15.445 0 4.82 11.307h-2.117c-.627-1.547-.87-2.126-.87-2.126l-.793-1.895h-3.77l-1.555 4.02H44l4.698-11.306h.562Zm-19.588.007a9.39 9.39 0 0 1 2.56.259c.632.15 1.208.476 1.661.94a2.42 2.42 0 0 1 .642 1.684 2.575 2.575 0 0 1-.83 1.929 3.905 3.905 0 0 1-1.83.97c.141.08.274.172.399.276.513.39.966.853 1.342 1.375 0 0 .83 1.102 1.938 3.858h-1.677c-.153-.636-1.689-5.187-4.554-5.187l-.277-.016v5.212h-1.938v-11.3h2.564Zm86.703 2.635-1.585 3.913h3.218l-1.633-3.913Zm-67.999 0-1.585 3.913h3.207L48.376 10.5Zm-19.33-1.825v4.55h1.066c.188-.007.374-.037.554-.09.182-.045.348-.105.5-.152h.003c.51-.181.914-.575 1.108-1.078.105-.328.156-.67.152-1.014a2.44 2.44 0 0 0-.534-1.67c-.305-.378-1.083-.53-2.362-.53l-.487-.016Zm137.45-.139.488.017c1.284 0 2.06.151 2.365.529.38.472.57 1.067.535 1.67.005.344-.047.687-.153 1.014a1.85 1.85 0 0 1-1.109 1.078h.017c-.152.047-.322.107-.505.151-.18.054-.366.085-.554.091h-1.084v-4.55Z"/><defs><linearGradient id="b" x1="7.455" x2="7.381" y1="-.278" y2="28.095" gradientUnits="userSpaceOnUse"><stop stop-color="#D943A5"/><stop offset="1" stop-color="#7CA4F7"/></linearGradient><clipPath id="a"><path fill="#fff" d="M0 0h14.761v22.068H0z"/></clipPath></defs></svg>